<mxfile host="app.diagrams.net" modified="2021-02-25T12:57:19.344Z" agent="5.0 (X11; Linux x86_64) AppleWebKit/537.36 (KHTML, like Gecko) Chrome/88.0.4324.182 Safari/537.36" etag="KmjN0aeeo6tsX7BUjEdf" version="14.4.3" type="github">
  <diagram id="8WR6p1A-PGB7mIEd-o-U" name="Page-1">
    <mxGraphModel dx="1373" dy="703" grid="1" gridSize="10" guides="1" tooltips="1" connect="1" arrows="1" fold="1" page="1" pageScale="1" pageWidth="850" pageHeight="1100" math="0" shadow="0">
      <root>
        <mxCell id="0" />
        <mxCell id="1" parent="0" />
        <mxCell id="oWJiN57EZkQ2BerRYD8i-1" value="" style="shape=table;html=1;whiteSpace=wrap;startSize=0;container=1;collapsible=0;childLayout=tableLayout;fillColor=none;strokeWidth=2;strokeColor=#B5B5B5;" vertex="1" parent="1">
          <mxGeometry x="90" y="290" width="710" height="175" as="geometry" />
        </mxCell>
        <mxCell id="oWJiN57EZkQ2BerRYD8i-2" value="" style="shape=partialRectangle;html=1;whiteSpace=wrap;collapsible=0;dropTarget=0;pointerEvents=0;top=0;left=0;bottom=0;right=0;points=[[0,0.5],[1,0.5]];portConstraint=eastwest;fillColor=none;strokeWidth=8;" vertex="1" parent="oWJiN57EZkQ2BerRYD8i-1">
          <mxGeometry width="710" height="175" as="geometry" />
        </mxCell>
        <mxCell id="oWJiN57EZkQ2BerRYD8i-3" value="" style="shape=partialRectangle;html=1;whiteSpace=wrap;connectable=0;overflow=hidden;top=0;left=0;bottom=0;right=0;fillColor=none;strokeWidth=8;" vertex="1" parent="oWJiN57EZkQ2BerRYD8i-2">
          <mxGeometry width="160" height="175" as="geometry" />
        </mxCell>
        <mxCell id="oWJiN57EZkQ2BerRYD8i-4" value="" style="shape=partialRectangle;html=1;whiteSpace=wrap;connectable=0;overflow=hidden;top=0;left=0;bottom=0;right=0;fillColor=none;strokeWidth=8;" vertex="1" parent="oWJiN57EZkQ2BerRYD8i-2">
          <mxGeometry x="160" width="133" height="175" as="geometry" />
        </mxCell>
        <mxCell id="oWJiN57EZkQ2BerRYD8i-5" value="" style="shape=partialRectangle;html=1;whiteSpace=wrap;connectable=0;overflow=hidden;top=0;left=0;bottom=0;right=0;fillColor=none;strokeWidth=8;" vertex="1" parent="oWJiN57EZkQ2BerRYD8i-2">
          <mxGeometry x="293" width="133" height="175" as="geometry" />
        </mxCell>
        <mxCell id="oWJiN57EZkQ2BerRYD8i-6" value="" style="shape=partialRectangle;html=1;whiteSpace=wrap;connectable=0;overflow=hidden;top=0;left=0;bottom=0;right=0;fillColor=none;strokeWidth=8;" vertex="1" parent="oWJiN57EZkQ2BerRYD8i-2">
          <mxGeometry x="426" width="142" height="175" as="geometry" />
        </mxCell>
        <mxCell id="oWJiN57EZkQ2BerRYD8i-7" value="" style="shape=partialRectangle;html=1;whiteSpace=wrap;connectable=0;overflow=hidden;top=0;left=0;bottom=0;right=0;fillColor=none;strokeWidth=8;" vertex="1" parent="oWJiN57EZkQ2BerRYD8i-2">
          <mxGeometry x="568" width="142" height="175" as="geometry" />
        </mxCell>
        <mxCell id="oWJiN57EZkQ2BerRYD8i-8" value="" style="rounded=0;whiteSpace=wrap;html=1;strokeColor=#b85450;fillColor=none;strokeWidth=8;" vertex="1" parent="1">
          <mxGeometry x="130" y="315" width="70" height="70" as="geometry" />
        </mxCell>
        <mxCell id="oWJiN57EZkQ2BerRYD8i-10" value="" style="rounded=0;whiteSpace=wrap;html=1;strokeColor=#b85450;fillColor=none;strokeWidth=8;" vertex="1" parent="1">
          <mxGeometry x="270" y="315" width="70" height="70" as="geometry" />
        </mxCell>
        <mxCell id="oWJiN57EZkQ2BerRYD8i-11" value="" style="rounded=0;whiteSpace=wrap;html=1;strokeColor=#b85450;fillColor=none;strokeWidth=8;" vertex="1" parent="1">
          <mxGeometry x="400" y="315" width="70" height="70" as="geometry" />
        </mxCell>
        <mxCell id="oWJiN57EZkQ2BerRYD8i-12" value="" style="rounded=0;whiteSpace=wrap;html=1;strokeColor=#b85450;fillColor=none;strokeWidth=8;" vertex="1" parent="1">
          <mxGeometry x="530" y="320" width="70" height="70" as="geometry" />
        </mxCell>
        <mxCell id="oWJiN57EZkQ2BerRYD8i-13" value="" style="rounded=0;whiteSpace=wrap;html=1;strokeColor=#b85450;fillColor=none;strokeWidth=8;" vertex="1" parent="1">
          <mxGeometry x="670" y="320" width="50" height="50" as="geometry" />
        </mxCell>
        <mxCell id="oWJiN57EZkQ2BerRYD8i-15" value="" style="rounded=0;whiteSpace=wrap;html=1;fillColor=none;strokeWidth=8;strokeColor=#5CB88D;" vertex="1" parent="1">
          <mxGeometry x="140" y="325" width="70" height="70" as="geometry" />
        </mxCell>
        <mxCell id="oWJiN57EZkQ2BerRYD8i-16" value="" style="rounded=0;whiteSpace=wrap;html=1;fillColor=none;strokeWidth=8;strokeColor=#5CB88D;" vertex="1" parent="1">
          <mxGeometry x="290" y="335" width="70" height="70" as="geometry" />
        </mxCell>
        <mxCell id="oWJiN57EZkQ2BerRYD8i-17" value="" style="rounded=0;whiteSpace=wrap;html=1;fillColor=none;strokeWidth=8;strokeColor=#5CB88D;" vertex="1" parent="1">
          <mxGeometry x="430" y="345" width="70" height="70" as="geometry" />
        </mxCell>
        <mxCell id="oWJiN57EZkQ2BerRYD8i-18" value="" style="rounded=0;whiteSpace=wrap;html=1;fillColor=none;strokeWidth=8;strokeColor=#5CB88D;" vertex="1" parent="1">
          <mxGeometry x="570" y="370" width="70" height="70" as="geometry" />
        </mxCell>
        <mxCell id="oWJiN57EZkQ2BerRYD8i-19" value="" style="rounded=0;whiteSpace=wrap;html=1;fillColor=none;strokeWidth=8;strokeColor=#5CB88D;" vertex="1" parent="1">
          <mxGeometry x="720" y="390" width="50" height="50" as="geometry" />
        </mxCell>
      </root>
    </mxGraphModel>
  </diagram>
</mxfile>
